<?xml version="1.0" encoding="utf-8"?>
<!-- Generator: Adobe Illustrator 23.0.2, SVG Export Plug-In . SVG Version: 6.00 Build 0)  -->
<!DOCTYPE svg PUBLIC "-//W3C//DTD SVG 1.1//EN" "http://www.w3.org/Graphics/SVG/1.1/DTD/svg11.dtd" [
	<!ENTITY ns_extend "http://ns.adobe.com/Extensibility/1.0/">
	<!ENTITY ns_ai "http://ns.adobe.com/AdobeIllustrator/10.0/">
	<!ENTITY ns_graphs "http://ns.adobe.com/Graphs/1.0/">
	<!ENTITY ns_vars "http://ns.adobe.com/Variables/1.0/">
	<!ENTITY ns_imrep "http://ns.adobe.com/ImageReplacement/1.0/">
	<!ENTITY ns_sfw "http://ns.adobe.com/SaveForWeb/1.0/">
	<!ENTITY ns_custom "http://ns.adobe.com/GenericCustomNamespace/1.0/">
	<!ENTITY ns_adobe_xpath "http://ns.adobe.com/XPath/1.0/">
]>
<svg version="1.1" id="Layer_1" xmlns:x="&ns_extend;" xmlns:i="&ns_ai;" xmlns:graph="&ns_graphs;"
	 xmlns="http://www.w3.org/2000/svg" xmlns:xlink="http://www.w3.org/1999/xlink" x="0px" y="0px" viewBox="0 0 144 38"
	 style="enable-background:new 0 0 144 38;" xml:space="preserve">
<style type="text/css">
	.st0{fill:#020202;}
	.st1{fill-rule:evenodd;clip-rule:evenodd;fill:#020202;}
</style>
<metadata>
	<sfw  xmlns="&ns_sfw;">
		<slices></slices>
		<sliceSourceBounds  bottomLeftOrigin="true" height="36.5" width="143.4" x="0.4" y="0.6"></sliceSourceBounds>
	</sfw>
</metadata>
<path class="st0" d="M16.3,12.5c0,0.3,0,0.6,0,0.8c0,0.2-0.1,0.4-0.1,0.5s-0.1,0.2-0.2,0.3s-0.2,0.1-0.3,0.1h-5.2V31
	c0,0.1,0,0.2-0.1,0.3c-0.1,0.1-0.2,0.2-0.3,0.2c-0.2,0.1-0.4,0.1-0.6,0.1c-0.3,0-0.6,0-1,0s-0.7,0-1,0s-0.5-0.1-0.6-0.1
	c-0.2-0.1-0.3-0.1-0.3-0.2c-0.1-0.1-0.1-0.2-0.1-0.3V14.2H1c-0.1,0-0.2,0-0.3-0.1S0.6,14,0.5,13.8s-0.1-0.3-0.1-0.5
	c0-0.2,0-0.5,0-0.8c0-0.3,0-0.6,0-0.8c0-0.2,0.1-0.4,0.1-0.5s0.1-0.2,0.2-0.3s0.2-0.1,0.3-0.1h14.6c0.1,0,0.2,0,0.3,0.1
	s0.1,0.2,0.2,0.3c0.1,0.1,0.1,0.3,0.1,0.5C16.2,11.9,16.3,12.2,16.3,12.5z"/>
<path class="st0" d="M28.1,31.1c0,0.1-0.1,0.3-0.2,0.4c-0.1,0.1-0.3,0.1-0.5,0.2c-0.2,0-0.6,0.1-1,0.1c-0.5,0-0.8,0-1.1-0.1
	c-0.2,0-0.4-0.1-0.5-0.2c-0.1-0.1-0.1-0.2-0.1-0.4v-1.1c-0.6,0.6-1.3,1.1-2,1.5c-0.8,0.4-1.6,0.5-2.5,0.5c-0.8,0-1.5-0.1-2.1-0.3
	s-1.2-0.5-1.7-0.9c-0.5-0.4-0.8-0.9-1.1-1.5c-0.3-0.6-0.4-1.3-0.4-2c0-0.8,0.2-1.6,0.5-2.2c0.3-0.6,0.8-1.1,1.5-1.5
	c0.6-0.4,1.5-0.7,2.4-0.9c1-0.2,2.1-0.3,3.4-0.3h1.4v-0.9c0-0.5,0-0.8-0.1-1.2s-0.2-0.6-0.5-0.8c-0.2-0.2-0.5-0.4-0.8-0.5
	s-0.8-0.2-1.3-0.2c-0.7,0-1.3,0.1-1.8,0.2c-0.5,0.2-1,0.3-1.4,0.5s-0.7,0.3-1,0.5c-0.3,0.1-0.5,0.2-0.7,0.2c-0.1,0-0.2,0-0.3-0.1
	c-0.1-0.1-0.2-0.2-0.2-0.3c-0.1-0.1-0.1-0.3-0.1-0.5c0-0.2,0-0.4,0-0.7c0-0.3,0-0.6,0.1-0.8c0.1-0.2,0.2-0.4,0.3-0.5
	s0.4-0.3,0.8-0.5s0.8-0.4,1.3-0.5c0.5-0.2,1.1-0.3,1.6-0.4s1.2-0.2,1.8-0.2c1.1,0,2.1,0.1,2.9,0.3c0.8,0.2,1.5,0.6,2,1
	c0.5,0.5,0.9,1,1.1,1.8c0.2,0.7,0.4,1.6,0.4,2.6L28.1,31.1L28.1,31.1z M24.1,24.9h-1.5c-0.7,0-1.2,0-1.7,0.1
	c-0.5,0.1-0.8,0.2-1.1,0.4c-0.3,0.2-0.5,0.4-0.6,0.7S19,26.8,19,27.1c0,0.6,0.2,1.1,0.6,1.4c0.4,0.3,0.9,0.5,1.6,0.5
	c0.6,0,1.1-0.1,1.6-0.4s1-0.7,1.5-1.3V24.9z"/>
<path class="st0" d="M43.2,28.7c0,0.3,0,0.5,0,0.7c0,0.2,0,0.3-0.1,0.5c0,0.1-0.1,0.2-0.1,0.3c0,0.1-0.1,0.2-0.2,0.3
	s-0.3,0.3-0.7,0.5s-0.7,0.3-1.1,0.5c-0.4,0.1-0.8,0.3-1.3,0.3c-0.5,0.1-0.9,0.1-1.4,0.1c-1.1,0-2.1-0.2-2.9-0.5
	c-0.9-0.3-1.6-0.8-2.1-1.5c-0.6-0.7-1-1.5-1.3-2.4c-0.3-1-0.4-2.1-0.4-3.3c0-1.4,0.2-2.7,0.5-3.7c0.4-1,0.9-1.9,1.5-2.6
	c0.6-0.7,1.4-1.2,2.3-1.5s1.8-0.5,2.9-0.5c0.4,0,0.8,0,1.3,0.1c0.4,0.1,0.8,0.2,1.2,0.3c0.4,0.1,0.7,0.3,1,0.4s0.5,0.3,0.6,0.4
	c0.1,0.1,0.2,0.2,0.2,0.3s0.1,0.2,0.1,0.3c0,0.1,0,0.3,0.1,0.5c0,0.2,0,0.4,0,0.7c0,0.6-0.1,1.1-0.2,1.3c-0.1,0.3-0.2,0.4-0.4,0.4
	c-0.2,0-0.4-0.1-0.6-0.2c-0.2-0.1-0.4-0.3-0.7-0.5c-0.3-0.2-0.6-0.3-1-0.5c-0.4-0.2-0.8-0.2-1.4-0.2c-1,0-1.9,0.4-2.4,1.2
	c-0.6,0.8-0.8,2-0.8,3.6c0,0.8,0.1,1.5,0.2,2c0.1,0.6,0.3,1.1,0.6,1.5c0.3,0.4,0.6,0.7,1,0.9c0.4,0.2,0.9,0.3,1.4,0.3
	c0.6,0,1-0.1,1.4-0.2c0.4-0.2,0.8-0.3,1.1-0.6c0.3-0.2,0.6-0.4,0.8-0.6c0.2-0.2,0.4-0.2,0.5-0.2c0.1,0,0.2,0,0.2,0.1
	c0.1,0.1,0.1,0.2,0.2,0.3c0,0.1,0.1,0.3,0.1,0.6C43.2,28.1,43.2,28.4,43.2,28.7z"/>
<path class="st0" d="M59.8,31c0,0.1,0,0.2-0.1,0.3c-0.1,0.1-0.2,0.1-0.3,0.2c-0.2,0.1-0.4,0.1-0.6,0.1c-0.3,0-0.6,0-1,0
	c-0.4,0-0.7,0-1,0c-0.3,0-0.5-0.1-0.6-0.1c-0.2-0.1-0.3-0.1-0.3-0.2c-0.1-0.1-0.1-0.2-0.1-0.3v-8.2c0-0.7-0.1-1.2-0.2-1.6
	c-0.1-0.4-0.3-0.7-0.4-1c-0.2-0.3-0.4-0.5-0.7-0.7c-0.3-0.2-0.7-0.2-1.1-0.2c-0.5,0-1,0.2-1.6,0.6c-0.5,0.4-1.1,0.9-1.6,1.6V31
	c0,0.1,0,0.2-0.1,0.3c-0.1,0.1-0.2,0.1-0.3,0.2c-0.2,0.1-0.4,0.1-0.6,0.1c-0.3,0-0.6,0-1,0s-0.7,0-1,0c-0.3,0-0.5-0.1-0.6-0.1
	c-0.2-0.1-0.3-0.1-0.3-0.2s-0.1-0.2-0.1-0.3V9.9c0-0.1,0-0.2,0.1-0.3s0.2-0.2,0.3-0.2c0.2-0.1,0.4-0.1,0.6-0.1c0.3,0,0.6,0,1,0
	s0.7,0,1,0c0.3,0,0.5,0.1,0.6,0.1S50,9.5,50,9.6c0.1,0.1,0.1,0.2,0.1,0.3v7.9c0.7-0.7,1.4-1.2,2.1-1.5c0.7-0.3,1.5-0.5,2.3-0.5
	c1,0,1.8,0.2,2.5,0.5c0.7,0.3,1.2,0.8,1.6,1.3c0.4,0.6,0.7,1.2,0.9,2c0.2,0.7,0.3,1.6,0.3,2.7L59.8,31L59.8,31z"/>
<path class="st0" d="M71.4,31.6l-1.7,5.1c-0.1,0.3-0.4,0.5-0.8,0.6c-0.4,0.1-1.1,0.2-1.9,0.2c-0.4,0-0.8,0-1-0.1
	c-0.3,0-0.4-0.1-0.6-0.2s-0.2-0.2-0.2-0.3c0-0.1,0-0.3,0.1-0.5l1.9-4.8c-0.1-0.1-0.3-0.2-0.4-0.3c-0.1-0.1-0.2-0.3-0.2-0.4
	l-4.9-13.2c-0.1-0.4-0.2-0.7-0.2-0.9s0.1-0.4,0.2-0.5c0.1-0.1,0.3-0.2,0.7-0.2c0.3,0,0.7-0.1,1.2-0.1c0.5,0,0.8,0,1.1,0
	c0.3,0,0.5,0.1,0.6,0.1c0.2,0.1,0.3,0.2,0.3,0.3c0.1,0.1,0.1,0.3,0.2,0.6l3.4,9.6h0l3.1-9.8c0.1-0.3,0.1-0.5,0.2-0.6
	c0.1-0.1,0.3-0.2,0.5-0.2c0.2,0,0.6-0.1,1.2-0.1c0.5,0,0.8,0,1.1,0.1c0.3,0,0.5,0.1,0.7,0.2c0.1,0.1,0.2,0.3,0.2,0.5
	c0,0.2,0,0.4-0.1,0.7L71.4,31.6z"/>
<path class="st0" d="M92.1,31c0,0.1,0,0.2-0.1,0.3c-0.1,0.1-0.1,0.1-0.3,0.2c-0.1,0.1-0.3,0.1-0.5,0.1c-0.2,0-0.5,0-0.8,0
	c-0.4,0-0.6,0-0.9,0c-0.2,0-0.4-0.1-0.5-0.1c-0.1-0.1-0.2-0.1-0.3-0.2c-0.1-0.1-0.1-0.2-0.1-0.3v-1.7c-0.8,0.9-1.6,1.5-2.4,1.9
	s-1.7,0.6-2.5,0.6c-1,0-1.8-0.2-2.5-0.5c-0.7-0.3-1.2-0.8-1.6-1.3c-0.4-0.6-0.7-1.2-0.9-1.9c-0.2-0.7-0.3-1.6-0.3-2.7v-8.8
	c0-0.1,0-0.2,0.1-0.3c0.1-0.1,0.2-0.1,0.3-0.2s0.4-0.1,0.6-0.1c0.3,0,0.6,0,1,0c0.4,0,0.7,0,1,0c0.3,0,0.5,0.1,0.6,0.1
	c0.2,0.1,0.3,0.1,0.3,0.2c0.1,0.1,0.1,0.2,0.1,0.3v8.1c0,0.8,0,1.3,0.1,1.7c0.1,0.4,0.2,0.7,0.4,1s0.4,0.5,0.8,0.7
	c0.3,0.2,0.7,0.2,1.1,0.2c0.5,0,1-0.2,1.6-0.6c0.5-0.4,1.1-0.9,1.7-1.6v-9.5c0-0.1,0-0.2,0.1-0.3c0.1-0.1,0.2-0.1,0.3-0.2
	c0.2-0.1,0.4-0.1,0.6-0.1c0.3,0,0.6,0,1,0s0.7,0,1,0c0.3,0,0.5,0.1,0.6,0.1c0.2,0.1,0.3,0.1,0.3,0.2c0.1,0.1,0.1,0.2,0.1,0.3
	L92.1,31L92.1,31z"/>
<path class="st0" d="M118.8,31c0,0.1,0,0.2-0.1,0.3c-0.1,0.1-0.2,0.1-0.3,0.2c-0.2,0.1-0.4,0.1-0.6,0.1c-0.3,0-0.6,0-1,0
	c-0.4,0-0.7,0-1,0c-0.3,0-0.5-0.1-0.6-0.1c-0.2-0.1-0.3-0.1-0.3-0.2s-0.1-0.2-0.1-0.3v-8.5c0-0.5,0-0.9-0.1-1.3
	c-0.1-0.4-0.2-0.7-0.4-1c-0.2-0.3-0.4-0.5-0.7-0.7c-0.3-0.2-0.6-0.2-1-0.2c-0.5,0-1,0.2-1.5,0.6c-0.5,0.4-1,0.9-1.6,1.6V31
	c0,0.1,0,0.2-0.1,0.3c-0.1,0.1-0.2,0.1-0.3,0.2c-0.2,0.1-0.4,0.1-0.6,0.1c-0.3,0-0.6,0-1,0c-0.4,0-0.7,0-1,0c-0.3,0-0.5-0.1-0.6-0.1
	c-0.2-0.1-0.3-0.1-0.3-0.2s-0.1-0.2-0.1-0.3v-8.5c0-0.5,0-0.9-0.1-1.3c-0.1-0.4-0.2-0.7-0.4-1c-0.2-0.3-0.4-0.5-0.7-0.7
	c-0.3-0.2-0.6-0.2-1-0.2c-0.5,0-1,0.2-1.5,0.6c-0.5,0.4-1,0.9-1.6,1.6V31c0,0.1,0,0.2-0.1,0.3c-0.1,0.1-0.2,0.1-0.3,0.2
	c-0.2,0.1-0.4,0.1-0.6,0.1c-0.3,0-0.6,0-1,0c-0.4,0-0.7,0-1,0c-0.3,0-0.5-0.1-0.6-0.1c-0.2-0.1-0.3-0.1-0.3-0.2S96,31.1,96,31V16.7
	c0-0.1,0-0.2,0.1-0.3c0.1-0.1,0.1-0.1,0.3-0.2s0.3-0.1,0.5-0.1c0.2,0,0.5,0,0.8,0c0.3,0,0.6,0,0.9,0c0.2,0,0.4,0.1,0.5,0.1
	s0.2,0.1,0.3,0.2c0.1,0.1,0.1,0.2,0.1,0.3v1.7c0.8-0.9,1.6-1.5,2.4-1.9c0.8-0.4,1.6-0.6,2.5-0.6c0.6,0,1.1,0.1,1.6,0.2
	c0.5,0.1,0.9,0.3,1.3,0.5s0.7,0.5,1,0.8c0.3,0.3,0.5,0.7,0.7,1.1c0.4-0.5,0.8-0.9,1.3-1.2c0.4-0.3,0.8-0.6,1.2-0.8
	c0.4-0.2,0.8-0.4,1.2-0.5c0.4-0.1,0.8-0.2,1.2-0.2c1,0,1.8,0.2,2.4,0.5c0.7,0.3,1.2,0.8,1.6,1.3c0.4,0.6,0.7,1.2,0.9,1.9
	s0.3,1.5,0.3,2.3L118.8,31L118.8,31z"/>
<path class="st1" d="M142.6,0.9c6.8-1.3-17.8,23.9-19.9,25.1c-2.1,1.2,13.3-15.7,7.3-17.8C124,6,84.7,14,86.8,12.8
	C88.9,11.6,135.8,2.1,142.6,0.9"/>
<path class="st0" d="M122.3,28.5C122.3,28.5,122.3,28.6,122.3,28.5c0,0.1,0,0.1,0,0.1c0,0,0,0,0,0c0,0,0,0,0,0h-0.9v2.7c0,0,0,0,0,0
	c0,0,0,0,0,0c0,0,0,0-0.1,0c0,0-0.1,0-0.1,0s-0.1,0-0.1,0s0,0-0.1,0c0,0,0,0,0,0c0,0,0,0,0,0v-2.7H120c0,0,0,0,0,0c0,0,0,0,0,0
	c0,0,0,0,0-0.1c0,0,0,0,0-0.1s0-0.1,0-0.1s0,0,0-0.1c0,0,0,0,0,0c0,0,0,0,0,0h2.2c0,0,0,0,0,0c0,0,0,0,0,0
	C122.3,28.4,122.3,28.4,122.3,28.5C122.3,28.5,122.3,28.5,122.3,28.5z"/>
<path class="st0" d="M126.1,31.4C126.1,31.4,126.1,31.4,126.1,31.4C126.1,31.4,126.1,31.4,126.1,31.4c-0.1,0.1-0.1,0.1-0.1,0.1
	c0,0-0.1,0-0.1,0c0,0-0.1,0-0.1,0c0,0,0,0-0.1,0c0,0,0,0,0,0c0,0,0,0,0,0v-2.7h0l-1.1,2.7c0,0,0,0,0,0c0,0,0,0,0,0c0,0,0,0-0.1,0
	c0,0-0.1,0-0.1,0c0,0-0.1,0-0.1,0c0,0,0,0-0.1,0c0,0,0,0,0,0c0,0,0,0,0,0l-1.1-2.7h0v2.7c0,0,0,0,0,0c0,0,0,0,0,0c0,0,0,0-0.1,0
	c0,0-0.1,0-0.1,0c0,0-0.1,0-0.1,0c0,0,0,0-0.1,0s0,0,0,0c0,0,0,0,0,0v-2.9c0-0.1,0-0.1,0.1-0.1c0,0,0.1,0,0.1,0h0.3
	c0.1,0,0.1,0,0.1,0c0,0,0.1,0,0.1,0c0,0,0.1,0,0.1,0.1c0,0,0,0.1,0.1,0.1l0.9,2.3h0l0.9-2.3c0,0,0-0.1,0.1-0.1c0,0,0-0.1,0.1-0.1
	c0,0,0.1,0,0.1,0c0,0,0.1,0,0.1,0h0.3c0,0,0,0,0.1,0c0,0,0,0,0.1,0c0,0,0,0,0,0.1c0,0,0,0.1,0,0.1L126.1,31.4L126.1,31.4z"/>
</svg>
